<?xml version="1.0" encoding="utf-8"?>
<!-- Generator: Adobe Illustrator 23.0.4, SVG Export Plug-In . SVG Version: 6.00 Build 0)  -->
<svg version="1.1" id="Layer_1" xmlns="http://www.w3.org/2000/svg" xmlns:xlink="http://www.w3.org/1999/xlink" x="0px" y="0px"
	 viewBox="0 0 452 217" style="enable-background:new 0 0 452 217;" xml:space="preserve">
<style type="text/css">
	.st0{fill-rule:evenodd;clip-rule:evenodd;fill:#FFFFFF;}
	.st1{fill-rule:evenodd;clip-rule:evenodd;fill:#B21F24;}
</style>
<polygon class="st0" points="111.3,178.5 50.3,38.6 83.7,38.6 125.7,142.8 168.8,38.6 200.1,38.6 141.7,178.5 "/>
<rect x="204.8" y="75.8" class="st0" width="28.4" height="102.7"/>
<path class="st0" d="M256.7,75.8h51c15.4,0,26.4,2.9,33,8.7c6.6,5.8,9.9,15.5,9.9,28.9v65h-27.1v-61.7c0-7.7-1.2-12.6-3.6-14.9
	c-2.4-2.3-7.2-3.4-14.3-3.4h-21.8v80.1h-27.1V75.8z"/>
<rect x="373.6" y="75.8" class="st0" width="28.4" height="102.7"/>
<rect x="204.8" y="38.6" class="st1" width="28.4" height="25.5"/>
<rect x="373.6" y="38.6" class="st1" width="28.4" height="25.5"/>
</svg>
